<?xml version="1.0" standalone="no"?><!DOCTYPE svg PUBLIC "-//W3C//DTD SVG 1.1//EN" "http://www.w3.org/Graphics/SVG/1.1/DTD/svg11.dtd"><svg t="1548656907516" class="icon" style="" viewBox="0 0 1024 1024" version="1.1" xmlns="http://www.w3.org/2000/svg" p-id="3474" xmlns:xlink="http://www.w3.org/1999/xlink" width="20" height="20"><defs><style type="text/css"></style></defs><path d="M672 752a331.2 331.2 0 0 1-166.4 44.8h-70.4a83.2 83.2 0 0 1-83.2-84.8 62.4 62.4 0 0 0-62.4-62.4 99.2 99.2 0 0 1-99.2-99.2A321.6 321.6 0 0 1 512 228.8h91.2A235.2 235.2 0 0 1 836.8 464a331.2 331.2 0 0 1-80 216 16 16 0 0 0 24 20.8A363.2 363.2 0 0 0 868.8 464a267.2 267.2 0 0 0-265.6-267.2H512A353.6 353.6 0 0 0 158.4 550.4a131.2 131.2 0 0 0 131.2 131.2 30.4 30.4 0 0 1 30.4 30.4 115.2 115.2 0 0 0 115.2 115.2h70.4a363.2 363.2 0 0 0 182.4-48 16 16 0 1 0-16-27.2z" fill="#7c7c7c" p-id="3475"></path><path d="M252.8 526.4m-41.6 0a41.6 41.6 0 1 0 83.2 0 41.6 41.6 0 1 0-83.2 0Z" fill="#7c7c7c" p-id="3476"></path><path d="M324.8 416m-48 0a48 48 0 1 0 96 0 48 48 0 1 0-96 0Z" fill="#7c7c7c" p-id="3477"></path><path d="M475.2 398.4a62.4 62.4 0 1 0-6.4 0z" fill="#7c7c7c" p-id="3478"></path><path d="M644.8 331.2m-68.8 0a68.8 68.8 0 1 0 137.6 0 68.8 68.8 0 1 0-137.6 0Z" fill="#7c7c7c" p-id="3479"></path><path d="M393.6 716.8a62.4 62.4 0 1 0 62.4-62.4 62.4 62.4 0 0 0-62.4 62.4z m62.4-30.4a30.4 30.4 0 1 1-30.4 30.4 30.4 30.4 0 0 1 28.8-30.4zM584 550.4l-16-41.6-6.4-8-56-40a25.6 25.6 0 0 0-36.8 33.6l30.4 52.8 6.4 6.4 35.2 20.8 296 296a24 24 0 0 0 33.6-33.6z" fill="#7c7c7c" p-id="3480"></path></svg>